<svg fill="none" viewBox="0 0 102 102">
  <circle cx="51" cy="51" r="51" fill="#252532" fill-opacity=".8"/>
  <circle cx="51" cy="51" r="50.5" stroke="url(#a)" stroke-opacity=".3"/>
  <path fill="#D1D1D1" d="M39 54v-8h-1.3v8H39ZM39.9 51.4c0 1.7 1 2.8 2.7 2.8 1.7 0 2.8-1.1 2.8-2.8 0-1.6-1.1-2.8-2.8-2.8-1.7 0-2.7 1.2-2.7 2.8Zm1.3 0c0-1 .5-1.6 1.4-1.6.9 0 1.5.7 1.5 1.6 0 1-.6 1.6-1.5 1.6s-1.4-.6-1.4-1.6ZM45.8 51.3c0 1.6 1 2.7 2.5 2.7.8 0 1.5-.3 1.8-.8v.9c0 .8-.6 1.4-1.5 1.4-.8 0-1.3-.4-1.4-1h-1.3c.1 1.3 1.2 2.2 2.7 2.2 1.7 0 2.8-1.1 2.8-2.9v-5h-1.2v.7c-.4-.6-1-.9-1.8-.9-1.6 0-2.6 1.2-2.6 2.7Zm1.4 0c0-.9.5-1.5 1.3-1.5 1 0 1.5.6 1.5 1.5s-.6 1.5-1.5 1.5c-.8 0-1.3-.6-1.3-1.5ZM52 51.4c0 1.7 1.1 2.8 2.8 2.8 1.6 0 2.7-1.1 2.7-2.8 0-1.6-1-2.8-2.7-2.8-1.7 0-2.8 1.2-2.8 2.8Zm1.3 0c0-1 .6-1.6 1.5-1.6s1.4.7 1.4 1.6c0 1-.5 1.6-1.4 1.6-.9 0-1.5-.6-1.5-1.6ZM59 47.7c.4 0 .8-.4.8-.8s-.4-.8-.8-.8c-.5 0-.8.4-.8.8s.3.8.8.8Zm-.7 6.4h1.3v-5.3h-1.3V54ZM60.8 56.6H62v-3.2c.3.5 1 .8 1.8.8 1.6 0 2.5-1.2 2.5-2.8 0-1.7-1-2.8-2.5-2.8-.8 0-1.5.4-1.9 1v-.8h-1.2v7.8Zm1.3-5.2c0-1 .6-1.6 1.5-1.6 1 0 1.5.7 1.5 1.6 0 1-.6 1.6-1.5 1.6-1 0-1.5-.6-1.5-1.6ZM66.7 52.5c0 1 .9 1.7 2.1 1.7 1.3 0 2.1-.6 2.1-1.7 0-.7-.4-1.2-1.3-1.5l-1-.2c-.3-.1-.6-.2-.6-.6 0-.3.3-.6.8-.6s.8.3.8.7h1.2c0-1-.9-1.7-2-1.7s-2 .7-2 1.7c0 .7.4 1.3 1.4 1.5l1 .3c.3 0 .5.2.5.5 0 .4-.4.6-.9.6-.6 0-.9-.2-.9-.7h-1.2ZM73.7 54.2c.7 0 1.4-.3 1.7-.8v.7h1.3v-5.3h-1.3v2.8c0 1-.4 1.5-1.2 1.5-.7 0-1.2-.4-1.2-1.5v-2.8h-1.3V52c0 1.3.7 2.1 2 2.1ZM79.2 54v-3c0-.8.5-1.2 1.1-1.2.6 0 1 .4 1 1.1v3.2h1.3v-3c0-1 .5-1.3 1.1-1.3.7 0 1 .4 1 1.1v3.2H86v-3.5c0-1.2-.6-2-2-2-.7 0-1.4.4-1.6 1-.3-.6-.9-1-1.8-1-.6 0-1.2.3-1.5.8v-.6h-1.2V54h1.3ZM76 58.8c.2 0 .4-.1.4-.3 0-.2-.2-.4-.4-.4s-.3.2-.3.4.1.3.3.3ZM76.8 57.5c0 .8.4 1.3 1.2 1.3.6 0 1-.3 1.1-.9h-.4c-.1.3-.4.5-.7.5-.5 0-.8-.3-.8-.9 0-.5.3-.9.8-.9.3 0 .6.2.7.5h.4c0-.6-.5-1-1.1-1-.7 0-1.2.6-1.2 1.4ZM79.3 57.5c0 .8.5 1.3 1.3 1.3s1.3-.5 1.3-1.3c0-.7-.5-1.3-1.3-1.3s-1.3.6-1.3 1.3Zm.5 0c0-.5.3-.9.8-.9s.8.4.8 1c0 .4-.3.8-.8.8s-.8-.4-.8-.9ZM82.8 58.8v-1.5c0-.4.2-.7.6-.7.3 0 .5.2.5.6v1.6h.5v-1.5c0-.4.3-.7.6-.7.4 0 .6.2.6.6v1.6h.4V57c0-.6-.3-1-.9-1-.4 0-.7.3-.8.6-.1-.3-.4-.5-.8-.5-.3 0-.6.1-.7.4v-.3h-.5v2.5h.5Z"/>
  <path fill="#D1D1D1" fill-rule="evenodd" d="M16 51.5V49.9h.1v-.4l.1-.2V49l.1-.1v-.2l.1-.2v-.2h.1v-.2l.1-.1v-.2h.1v-.2h.1v-.2l.1-.1v-.1h.1V47h.1V47l.1-.1v-.1l.1-.2h.1v-.1l.1-.1v-.1h.1V46h.1V46h.1l.1-.2.1-.1v-.1h.1l.1-.1v-.1l.1-.1h.1v-.1l.1-.1h.1v-.2h.2v-.2h.2v-.2h.2l.1-.2h.2v-.1l.1-.1h.1V44h.2v-.1l.1-.1h.1v-.1h.2v-.1h.1l.1-.1h.1v-.1h.2v-.1h.1l.1-.1h.1l.1-.1.2-.1h.2v-.1h.1l.1-.1h.1l.1-.1h.2l.1-.1h.1l.2-.1h.2v-.1h.4v-.1h.4v-.1h.4l.2-.1H24.9V42h1v2.6H27.3l.1.1H27.7l.2.1H28.1v.1H28.4v.1h.2l.1.1h.2v.1h.2l.1.1h.1l.1.1h.2v.1h.2v.1l.2.1.2.1v.1h.1l.1.1.1.1h.1l.1.1.1.1h.1v.1h.1v.1h.1l.1.1v.1h.1v.1h.1v.1h.1v.1h.1v.1l.1.1h.1v.1h.1v.1l.1.1v.1h.1v.1l.1.1.1.1v.1h.1v.1l.1.1v.1l.1.1.1.1v.1l.1.1v.1l.1.2v.1h.1v.2h.1v.2l.1.1v.2l.1.1v.2l.1.1V50.5l.1.1v.5h.1v.9l.1.1V53.7h-.1v.4l-.1.1V54.4l-.1.1V54.9l-.1.1v.2h-.1V55.4H33v.2H33v.2l-.1.1-.1.1v.1l-.1.2-.1.1v.1l-.1.1-.1.2-.1.1-.1.1v.1H32v.1l-.1.1-.1.1v.1h-.1v.1h-.1v.2h-.2v.1l-.1.1-.1.1h-.1v.1l-.1.1-.1.1h-.1v.1h-.1l-.1.1-.1.1-.1.1-.1.1h-.1v.1h-.1l-.1.1-.2.1h-.1v.1h-.2v.1h-.1v.1h-.2l-.1.1-.2.1h-.1l-.1.1h-.2v.1h-.2v.1h-.2l-.1.1H28l-.2.1h-.2l-.1.1H27.1l-.1.1h-.4v.1H26l-.2.1h-2.2l-.2-.1H23v-.1h-.4l-.1-.1h-.2l-.2-.1H22L22 60h-.2V60h-.2l-.1-.1h-.2v-.1H21l-.1-.1h-.1v-.1h-.2v-.1h-.2v-.1h-.2v-.1h-.1v-.1H20V59h-.1l-.1-.1-.1-.1h-.1v-.1l-.2-.1-.1-.1-.1-.1H19v-.1l-.2-.1v-.1l-.2-.1V58h-.1l-.1-.2h-.1l-.1-.2h-.1v-.2H18l-.1-.1-.1-.1V57h-.1v-.2h-.1v-.1h-.1v-.2h-.1l-.1-.1v-.2h-.1v-.1l-.1-.1-.1-.2-.1-.1v-.1h-.1v-.2l-.1-.1v-.1l-.1-.1V55h-.1v-.2l-.1-.1v-.2h-.1V54.1l-.1-.1V53.8h-.1v-.4l-.1-.1v-.6H16V51.4Zm9-6.9v-1.8h-.5l-.1.1H24l-.1.1H23.6l-.1.1H23.2v.1H22.8l-.1.1h-.1l-.2.1h-.1l-.1.1H22v.1h-.2v.1h-.2l-.1.1-.2.1-.1.1h-.1l-.2.1-.1.1-.2.1-.1.1-.2.1-.1.1v.1h-.1l-.1.1-.2.1-.1.1v.1h-.1l-.1.1-.1.1v.1h-.2v.1l-.1.2H19l-.1.2h-.1l-.1.2h-.1v.2h-.1v.1h-.1v.1l-.1.1-.1.2-.1.1-.1.2-.1.1-.1.2v.1h-.1v.2h-.1v.2h-.1v.2l-.1.1v.1h-.1V48.7l-.1.1v.2h-.1V49.3H17v.4l-.1.1v.4l-.1.1v.7l-.1.2V52.9h.1v.5l.1.1V53.7h.1V54l.1.2v.1h.1V54.7l.1.1v.2h.1v.1h.1v.2l.1.1v.2h.1v.1h.1v.2l.1.1.1.1v.1h.1v.1l.1.1.1.1v.1h.1v.1l.1.1.1.1v.1h.1v.1h.1l.1.2h.1v.1h.1v.1l.1.1h.1v.1h.1v.1h.2v.1l.1.1h.1v.1l.1.1h.1v.1h.2v.1h.1l.1.1.1.1h.1v.1h.2l.1.1.1.1h.1l.2.1.1.1h.2v.1H22v.1h.1l.2.1h.2v.1H22.9v.1h.4v.1h.4l.2.1h1v.1H26.3l.1-.1h.5v-.1H27.2l.2-.1H27.6v-.1h.1l.2-.1h.1l.2-.1h.1V59h.2V59h.2v-.1h.2l.1-.1.1-.1h.1l.1-.1h.1v-.1h.1l.2-.1v-.1h.1l.1-.1.1-.1.1-.1h.1v-.1h.1v-.1h.1v-.1h.1l.1-.1.1-.1.1-.1.1-.1v-.1h.1V57h.1V57h.1v-.1l.1-.1.1-.1v-.1l.1-.1.1-.1.1-.2.1-.1V56l.1-.1v-.1h.1v-.2h.1v-.2h.1v-.2l.1-.1V55l.1-.1V54.6l.1-.1v-.2h.1v-.4l.1-.1v-.5l.1-.2V51h-.1v-.4h-.1v-.4h-.1V50h-.1v-.2l-.1-.2v-.2h-.1v-.1l-.1-.1V49H32v-.2h-.1v-.2h-.1v-.1h-.1v-.1l-.1-.1v-.1h-.1v-.1l-.1-.1-.1-.1-.1-.1v-.1H31v-.1H31v-.1l-.1-.1-.1-.1-.1-.1h-.1l-.1-.1-.1-.1-.1-.1-.1-.1H30v-.1H30v-.1h-.2v-.1h-.1v-.1h-.2v-.1h-.1l-.1-.1h-.1l-.1-.1H29l-.1-.1h-.1l-.2-.1-.1-.1h-.2l-.1-.1H27.8v-.1h-.4v-.1H27v-.1h-1.2v1.7H26.9l.1.1H27.3l.1.1h.2l.1.1h.2l.1.1h.1v.1h.2l.1.1h.1v.1h.2v.1h.1l.1.1h.1v.1h.1v.1h.1l.1.1.1.1.1.1.1.1.1.1.1.1v.1h.1v.1h.1v.1h.1v.1l.1.1v.1h.1v.1l.1.1v.1l.1.1v.1l.1.1v.1l.1.1v.2h.1V50.9h.1v.4h.1v.6l.1.1V53.4h-.1v.4l-.1.1v.2h-.1v.2l-.1.1v.2h-.1v.2h-.1v.2h-.1v.1l-.1.1v.1H30v.1l-.1.1v.1h-.1v.1h-.1v.1l-.1.1-.1.1v.1h-.1v.1h-.1v.1h-.1l-.1.1v.1H29l-.1.1h-.1v.1h-.1v.1h-.1l-.1.1h-.1v.1h-.1l-.1.1h-.1l-.1.1H28v.1h-.2v.1h-.2l-.1.1h-.1l-.1.1H27l-.1.1H26.6v.1h-.4v.1H25.4v.1H24l-.1-.1h-.4v-.1H23.1l-.1-.1h-.2l-.1-.1h-.2v-.1h-.2v-.1h-.2v-.1H22v-.1h-.2V57h-.1l-.1-.1h-.1v-.1h-.1v-.1h-.1l-.1-.1-.1-.1H21v-.1h-.1v-.1h-.1l-.1-.1-.1-.1-.1-.1-.1-.1-.1-.1v-.1h-.1v-.1H20v-.1l-.1-.1-.1-.1v-.1h-.1v-.1h-.1V55l-.1-.1v-.1l-.1-.1v-.1h-.1v-.2l-.1-.1v-.1l-.1-.1V54L19 54v-.2H19V53.4l-.1-.1V53h-.1v-.4l-.1-.2V50l.1-.1V49.6l.1-.1v-.2h.1V49h.1v-.2h.1v-.2l.1-.1v-.2h.1v-.1l.1-.1V48h.1V48l.1-.1v-.1h.1v-.1h.1v-.2h.1v-.1h.1v-.1h.1v-.1l.1-.1V47h.1v-.1h.1v-.1h.1v-.1h.1v-.1h.1v-.1h.1v-.1h.2v-.1h.1v-.1h.1V46h.1l.1-.1h.1v-.1h.1l.1-.1h.1v-.1h.1l.1-.1h.1l.1-.1h.1v-.1h.2v-.1h.2v-.1H23.2V45h.2l.1-.1H23.7v-.1H24v-.1h.4l.1-.1h.5Zm0 2.7v-1.8h-.5l-.1.1H24v.1h-.2l-.1.1h-.2l-.1.1h-.2v.1H23v.1h-.2v.1h-.2v.1h-.1l-.1.1h-.1v.1h-.1l-.1.1-.1.1h-.1v.1h-.1v.1h-.1l-.1.1-.1.1h-.1v.1h-.1v.1h-.1v.1l-.1.1-.1.1-.1.1-.1.1v.1h-.1v.1h-.1v.1l-.1.1v.1l-.1.1v.1h-.1v.1l-.1.1v.1l-.1.1v.2H20v.2h-.1V49.7h-.1v.2l-.1.2V50.4h-.1v.7h-.1V52.7l.1.1V53l.1.1v.2l.1.1v.2l.1.1v.1l.1.1v.1l.1.1v.1l.1.1v.1h.1v.2h.1v.1l.1.1v.1h.1v.1h.1v.1l.1.1h.1v.1l.1.1.1.1.1.1h.1v.1l.1.1h.1v.1h.1v.1h.1l.1.1h.1v.1h.1l.1.1.1.1h.1l.1.1h.1l.1.1h.1l.1.1h.2v.1h.2l.1.1H23.6l.1.1h.4l.1.1H26.3l.1-.1H26.8v-.1h.2l.1-.1h.2v-.1h.2v-.1h.2v-.1h.2v-.1h.1l.1-.1h.1v-.1h.1l.1-.1.1-.1h.1v-.1h.1v-.1h.1v-.1h.1v-.1l.1-.1.1-.1.1-.1v-.1h.1V55h.1V55l.1-.1v-.1h.1v-.2h.1v-.2h.1v-.2h.1V53.8h.1V53.5h.1v-.4h.1V51.2H30V51l-.1-.1v-.2h-.1v-.2h-.1v-.2h-.1V50h-.1V50l-.1-.1v-.1h-.1v-.1h-.1v-.1H29v-.1l-.1-.1-.1-.1-.1-.1h-.1V49l-.1-.1h-.1v-.1h-.1l-.1-.1h-.1v-.1H28l-.1-.1h-.1l-.1-.1h-.1l-.1-.1h-.1l-.1-.1H27v-.1h-.4V48H25.8v1.7h.6v.1H26.9v.1h.2v.1h.1l.1.1h.1v.1h.1v.1h.1v.1h.1v.1h.1v.1h.1v.1h.1v.2h.1v.2h.1v.2l.1.1V51.9h.1V53.3h-.1v.2l-.1.1v.1l-.1.1v.1h-.1v.2h-.1v.1h-.1v.1h-.1v.1l-.1.1h-.1v.1h-.1v.1h-.1v.1H27v.1h-.2v.1h-.2v.1h-.2v.1h-.2l-.1.1H25.8v.1H24v-.1H23.6V55h-.2V55h-.2v-.1H23v-.1H23v-.1h-.1l-.1-.1h-.1v-.1h-.1v-.1h-.1v-.1h-.1v-.1h-.1V54h-.1V54l-.1-.1v-.1H22v-.1h-.1v-.2h-.1v-.2h-.1V53h-.1V52.7h-.1V52.4h-.1V51.5h-.1V50.7l.1-.1V50.3l.1-.1V50l.1-.1v-.1l.1-.1v-.2h.1v-.1l.1-.1v-.1h.1v-.1h.1V49h.1v-.1h.1v-.1h.1v-.1h.1v-.1l.1-.1h.1v-.1h.1v-.1h.1v-.1h.1l.1-.1h.1V48h.1l.1-.1h.1v-.1h.2v-.1h.2l.1-.1h.1l.1-.1h.2l.1-.1h.4v-.1h.1Zm.6 3.4-.5.1v-2.7h-.2l-.1.1h-.2l-.1.1h-.2v.1H24v.1h-.2v.1h-.1v.1h-.2v.1h-.1v.1h-.1v.1h-.1v.1h-.1v.1H23v.1H23v.1h-.1v.1h-.1v.2h-.1v.1l-.1.1v.1l-.1.1v.2h-.1v.2h-.1v.4l-.1.1V52.5h.1V52.8h.1v.2h.1v.2h.1v.1h.1v.2h.1v.1h.1v.1h.1v.1h.1v.1h.1v.1h.1v.1h.2v.1h.1l.1.1h.1l.1.1h.2v.1H24.5l.1.1H26v-.1h.2l.1-.1h.1v-.1h.2V54h.1V54h.1v-.1h.1v-.1h.1v-.1h.1v-.1h.1v-.1l.1-.1v-.1l.1-.1V53h.1V51.5h-.1v-.2h-.1v-.1H27v-.1H27V51h-.1V51h-.1v-.1h-.2v-.1h-.2v-.1h-.7Z" clip-rule="evenodd"/>
  <defs>
    <linearGradient id="a" x1="0" x2="110.3" y1="-3.7" y2="5.8" gradientUnits="userSpaceOnUse">
      <stop offset="0" stop-color="#fff"/>
      <stop offset="1" stop-color="#fff" stop-opacity="0"/>
    </linearGradient>
  </defs>
</svg>
