<svg xmlns="http://www.w3.org/2000/svg" xmlns:xlink="http://www.w3.org/1999/xlink"><defs>
<clipPath id="clip0_0_1">
<rect width="1440" height="3259" fill="white" transform="translate(-162 -2338)"/>
</clipPath>

<filter id="filter0_b_34_2857" x="-16" y="-16" width="132" height="132" filterUnits="userSpaceOnUse" color-interpolation-filters="sRGB">
<feFlood flood-opacity="0" result="BackgroundImageFix"/>
<feGaussianBlur in="BackgroundImageFix" stdDeviation="8"/>
<feComposite in2="SourceAlpha" operator="in" result="effect1_backgroundBlur_34_2857"/>
<feBlend mode="normal" in="SourceGraphic" in2="effect1_backgroundBlur_34_2857" result="shape"/>
</filter>
</defs><symbol id="icon-arrow" viewBox="0 0 13 12"><g fill="none">
  <path d="M6.01685 7.68789L3.01685 4.68789L3.55435 4.15039L6.01685 6.62539L8.47935 4.16289L9.01685 4.70039L6.01685 7.68789Z" fill="white"/>
</g></symbol><symbol id="icon-calling" viewBox="0 0 20 20"><g fill="none">
  <path fill-rule="evenodd" clip-rule="evenodd" d="M5.5479 1.66744C6.47874 1.67994 7.14207 2.37744 7.98124 3.25994C8.18874 3.47744 8.4129 3.71494 8.66374 3.96494C9.87957 5.18161 9.53374 6.17411 9.25457 6.97078C8.95124 7.83994 8.68874 8.58994 10.2604 10.1616C11.8321 11.7333 12.5812 11.4708 13.4496 11.1649C14.2471 10.8866 15.2371 10.5383 16.4554 11.7549C16.7029 12.0024 16.9362 12.2241 17.1529 12.4299C18.0387 13.2733 18.7387 13.9391 18.7505 14.8724C18.7596 15.6674 18.2762 16.4791 17.0829 17.6724L16.5546 17.3141L17.0021 17.7499C16.7379 18.0208 16.0354 18.7424 14.6596 18.7508H14.6346C12.5579 18.7508 9.8504 17.0974 6.58707 13.8349C3.3104 10.5591 1.65457 7.84328 1.667 5.76244C1.67457 4.38744 2.3954 3.68328 2.66624 3.41911L2.68935 3.39386L2.7454 3.33744C3.94124 2.14161 4.7629 1.64994 5.5479 1.66744ZM5.53207 2.91744H5.5254C5.15119 2.91744 4.58288 3.29244 3.79026 4.06236L3.6311 4.21866L3.6329 4.21828C3.6329 4.21828 3.6193 4.23388 3.59612 4.25752L3.5404 4.31328C3.33874 4.50911 2.92124 4.91661 2.91703 5.76911C2.9104 6.96161 3.69457 9.17578 7.4704 12.9508C11.2279 16.7074 13.4387 17.5008 14.6346 17.5008H14.6521C15.5046 17.4958 15.9112 17.0783 16.1071 16.8774C16.1662 16.8166 16.2146 16.7708 16.2487 16.7433C17.0796 15.9074 17.5046 15.2866 17.5004 14.8874C17.4954 14.4808 16.9896 14.0008 16.2904 13.3349C16.0679 13.1241 15.8262 12.8933 15.5712 12.6383C14.9096 11.9791 14.5837 12.0916 13.8629 12.3449C12.8671 12.6941 11.5029 13.1724 9.37707 11.0449C7.2504 8.91911 7.72707 7.55494 8.07457 6.55828C8.32624 5.83828 8.44124 5.51078 7.7804 4.84911C7.52207 4.59078 7.28957 4.34578 7.0754 4.12078C6.41374 3.42578 5.93624 2.92328 5.53207 2.91744ZM12.7055 4.63203C14.4397 4.96869 15.7788 6.30703 16.1163 8.04203C16.1822 8.38203 15.9613 8.70953 15.623 8.77536C15.5822 8.78286 15.5422 8.78702 15.5022 8.78702C15.2088 8.78702 14.948 8.58036 14.8897 8.28203C14.6497 7.04869 13.6988 6.09786 12.4672 5.85869C12.128 5.79286 11.9072 5.46536 11.973 5.12619C12.0388 4.78703 12.3722 4.56536 12.7055 4.63203ZM12.6556 1.67219C16.0539 2.04969 18.6931 4.68553 19.0739 8.08303C19.1122 8.42636 18.8656 8.73553 18.5231 8.77386C18.4997 8.77636 18.4756 8.77803 18.4522 8.77803C18.1381 8.77803 17.8681 8.54219 17.8322 8.22303C17.5164 5.40969 15.3314 3.22636 12.5172 2.91386C12.1747 2.87553 11.9272 2.56719 11.9656 2.22386C12.0031 1.88136 12.3089 1.62886 12.6556 1.67219Z" fill="#B0B0B2"/>
</g></symbol><symbol id="icon-close" viewBox="0 0 24 24"><g fill="none">
<path fill-rule="evenodd" clip-rule="evenodd" d="M18.7071 5.29289C19.0976 5.68342 19.0976 6.31658 18.7071 6.70711L6.70711 18.7071C6.31658 19.0976 5.68342 19.0976 5.29289 18.7071C4.90237 18.3166 4.90237 17.6834 5.29289 17.2929L17.2929 5.29289C17.6834 4.90237 18.3166 4.90237 18.7071 5.29289Z" fill="currentColor"/>
<path fill-rule="evenodd" clip-rule="evenodd" d="M5.29289 5.29289C5.68342 4.90237 6.31658 4.90237 6.70711 5.29289L18.7071 17.2929C19.0976 17.6834 19.0976 18.3166 18.7071 18.7071C18.3166 19.0976 17.6834 19.0976 17.2929 18.7071L5.29289 6.70711C4.90237 6.31658 4.90237 5.68342 5.29289 5.29289Z" fill="currentColor"/>
</g></symbol><symbol id="icon-facebook-mini" viewBox="0 0 11 21"><g fill="none">
<rect width="11" height="21" fill="#4A4A58"/>
<g id="Detail Blog" clip-path="url(#clip0_0_1)">
<rect width="1440" height="3259" transform="translate(-162 -2338)" fill="#18181B"/>
<g id="Article">
<g id="Share :">
<g id="Share :_2">
<g id="2">
<g id="logo-fb-simple 2">
<g id="Group">
<path id="Vector" d="M3.42748 20.1305V11.0069H0.357178V7.45117H3.42748V4.82896C3.42748 1.78591 5.28608 0.128906 8.00069 0.128906C9.30102 0.128906 10.4186 0.225719 10.7443 0.26899V3.44916L8.86154 3.45001C7.38518 3.45001 7.09932 4.15156 7.09932 5.18103V7.45117H10.6203L10.1619 11.0069H7.09932V20.1305H3.42748Z" fill="white"/>
</g>
</g>
</g>
</g>
</g>
</g>
</g>

</g></symbol><symbol id="icon-facebook" viewBox="0 0 46 47"><g fill="none">
  <circle cx="23" cy="23.2588" r="22.5" fill="#18181B"/>
  <path d="M20.8828 33.6149V24.4912H17.8125V20.9355H20.8828V18.3133C20.8828 15.2703 22.7414 13.6133 25.456 13.6133C26.7563 13.6133 27.8739 13.7101 28.1996 13.7534V16.9335L26.3169 16.9344C24.8405 16.9344 24.5546 17.6359 24.5546 18.6654V20.9355H28.0756L27.6172 24.4912H24.5546V33.6149H20.8828Z" fill="white"/>
</g></symbol><symbol id="icon-github" viewBox="0 0 46 47"><g fill="none">
  <circle cx="23" cy="23.2588" r="22.5" fill="#18181B"/>
  <path fill-rule="evenodd" clip-rule="evenodd" d="M24.001 12.1299C18.1016 12.1299 13.3555 16.876 13.3555 22.7754C13.3555 27.4772 16.4161 31.4693 20.6299 32.8887C21.1622 32.9774 21.3396 32.6669 21.3396 32.3564C21.3396 32.0903 21.3396 31.4249 21.3396 30.5378C18.3677 31.2031 17.7468 29.1184 17.7468 29.1184C17.2588 27.8764 16.5491 27.5659 16.5491 27.5659C15.5733 26.9006 16.6378 26.9006 16.6378 26.9006C17.7024 26.9893 18.279 28.0095 18.279 28.0095C19.2105 29.6507 20.763 29.1628 21.384 28.8966C21.4727 28.1869 21.7388 27.7433 22.0493 27.4772C19.6984 27.2111 17.2145 26.2796 17.2145 22.1988C17.2145 21.0455 17.6137 20.0697 18.3234 19.36C18.2347 19.0938 17.8355 18.0293 18.4121 16.5212C18.4121 16.5212 19.2992 16.255 21.3396 17.6301C22.1824 17.4083 23.1139 17.2752 24.001 17.2752C24.8881 17.2752 25.8196 17.4083 26.6624 17.6301C28.7028 16.255 29.5899 16.5212 29.5899 16.5212C30.1665 17.9849 29.8117 19.0495 29.6786 19.36C30.344 20.114 30.7875 21.0455 30.7875 22.1988C30.7875 26.2796 28.3036 27.1667 25.9083 27.4328C26.3075 27.7433 26.618 28.4087 26.618 29.3845C26.618 30.8039 26.618 31.9572 26.618 32.3121C26.618 32.5782 26.7955 32.933 27.3721 32.8443C31.586 31.4693 34.6465 27.4772 34.6465 22.7754C34.6465 16.876 29.9004 12.1299 24.001 12.1299Z" fill="white"/>
</g></symbol><symbol id="icon-instagram-mini" viewBox="0 0 23 23"><g fill="none">
<path d="M11.8732 2.00535C14.8446 2.00535 15.1965 2.01647 16.3704 2.07C17.0761 2.07864 17.7752 2.20823 18.4372 2.45316C18.9172 2.63829 19.3532 2.9219 19.717 3.28571C20.0808 3.64953 20.3644 4.0855 20.5496 4.56555C20.7945 5.22752 20.9241 5.92659 20.9327 6.63237C20.9857 7.80622 20.9974 8.15811 20.9974 11.1296C20.9974 14.101 20.9863 14.4529 20.9327 15.6267C20.9241 16.3325 20.7945 17.0316 20.5496 17.6936C20.3644 18.1736 20.0808 18.6096 19.717 18.9734C19.3532 19.3372 18.9172 19.6208 18.4372 19.806C17.7752 20.0509 17.0761 20.1805 16.3704 20.1891C15.197 20.2421 14.8452 20.2538 11.8732 20.2538C8.90119 20.2538 8.5493 20.2426 7.37598 20.1891C6.67021 20.1805 5.97114 20.0509 5.30916 19.806C4.82911 19.6208 4.39314 19.3372 4.02932 18.9734C3.66551 18.6096 3.3819 18.1736 3.19677 17.6936C2.95184 17.0316 2.82225 16.3325 2.81361 15.6267C2.76062 14.4529 2.74896 14.101 2.74896 11.1296C2.74896 8.15811 2.76009 7.80622 2.81361 6.63237C2.82225 5.92659 2.95184 5.22752 3.19677 4.56555C3.3819 4.0855 3.66551 3.64953 4.02932 3.28571C4.39314 2.9219 4.82911 2.63829 5.30916 2.45316C5.97114 2.20823 6.67021 2.07864 7.37598 2.07C8.54983 2.017 8.90172 2.00535 11.8732 2.00535ZM11.8732 0C8.85243 0 8.47193 0.0127189 7.28483 0.0667741C6.36115 0.0851465 5.44727 0.260038 4.58207 0.584009C3.83986 0.863648 3.16762 1.30187 2.61223 1.86809C2.0455 2.42368 1.6069 3.09631 1.32709 3.83899C1.00312 4.70419 0.828227 5.61807 0.809855 6.54175C0.75686 7.72779 0.744141 8.10829 0.744141 11.129C0.744141 14.1498 0.756859 14.5303 0.810915 15.7174C0.829287 16.6411 1.00418 17.5549 1.32815 18.4201C1.60765 19.1627 2.04588 19.8353 2.61223 20.391C3.16792 20.9574 3.84054 21.3956 4.58313 21.6751C5.44833 21.9991 6.36221 22.174 7.28589 22.1923C8.47299 22.2453 8.8519 22.2591 11.8742 22.2591C14.8966 22.2591 15.2755 22.2464 16.4626 22.1923C17.3863 22.174 18.3001 21.9991 19.1653 21.6751C19.9044 21.3886 20.5755 20.9511 21.1358 20.3904C21.6961 19.8297 22.1333 19.1583 22.4193 18.4191C22.7432 17.5539 22.9181 16.64 22.9365 15.7163C22.9895 14.5303 23.0022 14.1498 23.0022 11.129C23.0022 8.10829 22.9895 7.72779 22.9354 6.54069C22.9171 5.61701 22.7422 4.70313 22.4182 3.83792C22.1387 3.09534 21.7005 2.42272 21.1341 1.86703C20.5784 1.30068 19.9058 0.862451 19.1632 0.582949C18.298 0.258978 17.3841 0.0840867 16.4605 0.0657143C15.2744 0.0127189 14.8939 0 11.8732 0Z" fill="white"/>
<path d="M11.8771 5.41406C10.7468 5.41406 9.64187 5.74924 8.70204 6.37722C7.76221 7.00519 7.0297 7.89776 6.59714 8.94204C6.16459 9.98632 6.05141 11.1354 6.27192 12.244C6.49244 13.3526 7.03674 14.371 7.836 15.1702C8.63526 15.9695 9.65358 16.5138 10.7622 16.7343C11.8708 16.9548 13.0199 16.8416 14.0642 16.4091C15.1085 15.9765 16.001 15.244 16.629 14.3042C17.257 13.3643 17.5922 12.2594 17.5922 11.1291C17.5922 9.61337 16.99 8.15973 15.9183 7.08795C14.8465 6.01618 13.3929 5.41406 11.8771 5.41406ZM11.8771 14.8388C11.1434 14.8388 10.4262 14.6212 9.81615 14.2136C9.20609 13.8059 8.73062 13.2266 8.44984 12.5487C8.16906 11.8709 8.0956 11.125 8.23874 10.4054C8.38188 9.68576 8.73519 9.02475 9.254 8.50595C9.7728 7.98714 10.4338 7.63383 11.1534 7.49069C11.873 7.34755 12.6189 7.42101 13.2968 7.70179C13.9746 7.98257 14.554 8.45805 14.9616 9.0681C15.3692 9.67815 15.5868 10.3954 15.5868 11.1291C15.5868 12.113 15.196 13.0565 14.5003 13.7522C13.8046 14.4479 12.861 14.8388 11.8771 14.8388Z" fill="white"/>
<path d="M17.814 6.52351C18.5516 6.52351 19.1495 5.92559 19.1495 5.18802C19.1495 4.45046 18.5516 3.85254 17.814 3.85254C17.0764 3.85254 16.4785 4.45046 16.4785 5.18802C16.4785 5.92559 17.0764 6.52351 17.814 6.52351Z" fill="white"/>
</g></symbol><symbol id="icon-instagram" viewBox="0 0 46 47"><g fill="none">
  <circle cx="23" cy="23.2588" r="22.5" fill="#18181B"/>
  <path d="M22.9962 14.1352C25.9677 14.1352 26.3196 14.1464 27.4934 14.1999C28.1992 14.2085 28.8983 14.3381 29.5602 14.583C30.0403 14.7682 30.4762 15.0518 30.8401 15.4156C31.2039 15.7794 31.4875 16.2154 31.6726 16.6954C31.9175 17.3574 32.0471 18.0565 32.0558 18.7623C32.1088 19.9361 32.1204 20.288 32.1204 23.2594C32.1204 26.2309 32.1093 26.5828 32.0558 27.7566C32.0471 28.4624 31.9175 29.1615 31.6726 29.8235C31.4875 30.3035 31.2039 30.7395 30.8401 31.1033C30.4762 31.4671 30.0403 31.7507 29.5602 31.9358C28.8983 32.1808 28.1992 32.3104 27.4934 32.319C26.3201 32.372 25.9682 32.3837 22.9962 32.3837C20.0242 32.3837 19.6723 32.3725 18.499 32.319C17.7933 32.3104 17.0942 32.1808 16.4322 31.9358C15.9522 31.7507 15.5162 31.4671 15.1524 31.1033C14.7886 30.7395 14.5049 30.3035 14.3198 29.8235C14.0749 29.1615 13.9453 28.4624 13.9367 27.7566C13.8837 26.5828 13.872 26.2309 13.872 23.2594C13.872 20.288 13.8831 19.9361 13.9367 18.7623C13.9453 18.0565 14.0749 17.3574 14.3198 16.6954C14.5049 16.2154 14.7886 15.7794 15.1524 15.4156C15.5162 15.0518 15.9522 14.7682 16.4322 14.583C17.0942 14.3381 17.7933 14.2085 18.499 14.1999C19.6729 14.1469 20.0248 14.1352 22.9962 14.1352ZM22.9962 12.1299C19.9755 12.1299 19.595 12.1426 18.4079 12.1967C17.4842 12.215 16.5703 12.3899 15.7051 12.7139C14.9629 12.9935 14.2907 13.4317 13.7353 13.998C13.1685 14.5536 12.7299 15.2262 12.4501 15.9689C12.1262 16.8341 11.9513 17.7479 11.9329 18.6716C11.8799 19.8577 11.8672 20.2382 11.8672 23.2589C11.8672 26.2796 11.8799 26.6602 11.934 27.8473C11.9523 28.7709 12.1272 29.6848 12.4512 30.55C12.7307 31.2926 13.1689 31.9652 13.7353 32.5209C14.291 33.0873 14.9636 33.5255 15.7062 33.805C16.5714 34.129 17.4853 34.3039 18.4089 34.3222C19.596 34.3752 19.975 34.389 22.9973 34.389C26.0196 34.389 26.3985 34.3763 27.5856 34.3222C28.5093 34.3039 29.4232 34.129 30.2884 33.805C31.0274 33.5185 31.6986 33.081 32.2589 32.5203C32.8192 31.9596 33.2563 31.2882 33.5423 30.549C33.8663 29.6838 34.0412 28.7699 34.0595 27.8462C34.1125 26.6602 34.1252 26.2796 34.1252 23.2589C34.1252 20.2382 34.1125 19.8577 34.0585 18.6706C34.0401 17.7469 33.8652 16.833 33.5412 15.9678C33.2617 15.2252 32.8235 14.5526 32.2572 13.9969C31.7015 13.4306 31.0288 12.9923 30.2863 12.7128C29.4211 12.3889 28.5072 12.214 27.5835 12.1956C26.3975 12.1426 26.017 12.1299 22.9962 12.1299Z" fill="white"/>
  <path d="M23.0002 17.5439C21.8699 17.5439 20.7649 17.8791 19.8251 18.5071C18.8853 19.1351 18.1527 20.0276 17.7202 21.0719C17.2876 22.1162 17.1745 23.2653 17.395 24.3739C17.6155 25.4825 18.1598 26.5008 18.9591 27.3001C19.7583 28.0994 20.7766 28.6437 21.8852 28.8642C22.9938 29.0847 24.1429 28.9715 25.1872 28.539C26.2315 28.1064 27.1241 27.3739 27.752 26.4341C28.38 25.4942 28.7152 24.3893 28.7152 23.259C28.7152 21.7432 28.1131 20.2896 27.0413 19.2178C25.9695 18.1461 24.5159 17.5439 23.0002 17.5439ZM23.0002 26.9686C22.2665 26.9686 21.5492 26.7511 20.9392 26.3435C20.3291 25.9358 19.8537 25.3565 19.5729 24.6786C19.2921 24.0007 19.2186 23.2549 19.3618 22.5352C19.5049 21.8156 19.8582 21.1546 20.377 20.6358C20.8959 20.117 21.5569 19.7637 22.2765 19.6206C22.9961 19.4774 23.742 19.5509 24.4198 19.8317C25.0977 20.1124 25.677 20.5879 26.0847 21.198C26.4923 21.808 26.7099 22.5253 26.7099 23.259C26.7099 24.2428 26.319 25.1864 25.6233 25.8821C24.9276 26.5778 23.984 26.9686 23.0002 26.9686Z" fill="white"/>
  <path d="M28.937 18.6534C29.6746 18.6534 30.2725 18.0555 30.2725 17.3179C30.2725 16.5803 29.6746 15.9824 28.937 15.9824C28.1995 15.9824 27.6016 16.5803 27.6016 17.3179C27.6016 18.0555 28.1995 18.6534 28.937 18.6534Z" fill="white"/>
</g></symbol><symbol id="icon-location" viewBox="0 0 20 20"><g fill="none">
  <path fill-rule="evenodd" clip-rule="evenodd" d="M10.2079 1.66699C13.9988 1.66699 17.0829 4.77449 17.0829 8.59449C17.0829 13.2903 11.7029 17.917 10.2079 17.917C8.71295 17.917 3.33295 13.2903 3.33295 8.59449C3.33295 4.77449 6.41711 1.66699 10.2079 1.66699ZM10.2079 2.91699C7.10628 2.91699 4.58295 5.46449 4.58295 8.59449C4.58295 12.577 9.26961 16.457 10.2079 16.6637C11.1463 16.4562 15.8329 12.5762 15.8329 8.59449C15.8329 5.46449 13.3096 2.91699 10.2079 2.91699ZM10.2088 5.83366C11.7021 5.83366 12.9171 7.04866 12.9171 8.54283C12.9171 10.0362 11.7021 11.2503 10.2088 11.2503C8.71545 11.2503 7.50045 10.0362 7.50045 8.54283C7.50045 7.04866 8.71545 5.83366 10.2088 5.83366ZM10.2088 7.08366C9.40461 7.08366 8.75045 7.73783 8.75045 8.54283C8.75045 9.34699 9.40461 10.0003 10.2088 10.0003C11.0129 10.0003 11.6671 9.34699 11.6671 8.54283C11.6671 7.73783 11.0129 7.08366 10.2088 7.08366Z" fill="#B0B0B2"/>
</g></symbol><symbol id="icon-message" viewBox="0 0 20 20"><g fill="none">
  <path fill-rule="evenodd" clip-rule="evenodd" d="M13.8824 1.66699C16.6574 1.66699 18.7499 3.93116 18.7499 6.93366V12.657C18.7499 14.1937 18.2066 15.582 17.2191 16.567C16.3333 17.4495 15.1841 17.917 13.8958 17.917H5.68492C4.39909 17.917 3.25075 17.4503 2.36409 16.567C1.37659 15.582 0.833252 14.1937 0.833252 12.657V6.93366C0.833252 3.93116 2.92575 1.66699 5.70075 1.66699H13.8824ZM13.8824 2.91699H5.70075C3.60492 2.91699 2.08325 4.60616 2.08325 6.93366V12.657C2.08325 13.8595 2.49659 14.9337 3.24659 15.6812C3.89325 16.327 4.73742 16.667 5.68742 16.667H13.8824C13.8841 16.6653 13.8908 16.667 13.8958 16.667C14.8466 16.667 15.6899 16.327 16.3366 15.6812C17.0874 14.9337 17.4999 13.8595 17.4999 12.657V6.93366C17.4999 4.60616 15.9783 2.91699 13.8824 2.91699ZM15.1958 6.77433C15.4133 7.04183 15.3724 7.43516 15.1049 7.65349L11.4016 10.6635C10.9333 11.0352 10.3733 11.221 9.81409 11.221C9.25659 11.221 8.70075 11.0368 8.23575 10.6685L4.49825 7.65516C4.22909 7.43849 4.18742 7.04433 4.40325 6.77599C4.62075 6.50849 5.01409 6.46599 5.28242 6.68183L9.01658 9.69182C9.48575 10.0635 10.1466 10.0635 10.6191 9.68849L14.3158 6.68349C14.5841 6.46433 14.9774 6.50599 15.1958 6.77433Z" fill="currentColor"/>
</g></symbol><symbol id="icon-play" viewBox="0 0 100 100"><g fill="none">
<g filter="url(#filter0_b_34_2857)">
<path fill-rule="evenodd" clip-rule="evenodd" d="M50 100C77.6142 100 100 77.6142 100 50C100 22.3858 77.6142 0 50 0C22.3858 0 0 22.3858 0 50C0 77.6142 22.3858 100 50 100ZM42.1875 68.3402L70.3125 52.62C72.3958 51.4556 72.3958 48.5444 70.3125 47.38L42.1875 31.6598C40.1042 30.4954 37.5 31.9509 37.5 34.2799V65.7201C37.5 68.049 40.1042 69.5046 42.1875 68.3402Z" fill="white" fill-opacity="0.3"/>
</g>

</g></symbol><symbol id="icon-send" viewBox="0 0 17 17"><g fill="none">
<path d="M14.9569 2.38799C14.6234 2.04573 14.1299 1.91822 13.6697 2.05244L2.93866 5.17302C2.45313 5.3079 2.10899 5.69512 2.01629 6.18703C1.92158 6.68767 2.25238 7.32319 2.68456 7.58894L6.03993 9.65121C6.38407 9.8626 6.82826 9.80958 7.11304 9.52236L10.9553 5.6562C11.1487 5.45487 11.4688 5.45487 11.6622 5.6562C11.8556 5.85082 11.8556 6.16623 11.6622 6.36756L7.81333 10.2344C7.52788 10.5209 7.47452 10.9672 7.68461 11.3135L9.73478 14.7025C9.97488 15.1052 10.3884 15.3333 10.8419 15.3333C10.8953 15.3333 10.9553 15.3333 11.0086 15.3266C11.5288 15.2595 11.9423 14.9038 12.0957 14.4005L15.277 3.68319C15.4171 3.22685 15.2904 2.73024 14.9569 2.38799Z" fill="white"/>
</g></symbol><symbol id="icon-twitter-mini" viewBox="0 0 19 16"><g fill="none">
<path d="M18.3572 2.43095C17.6688 2.7369 16.9421 2.92812 16.1772 3.04285C16.9421 2.58392 17.554 1.85728 17.8217 0.97767C17.0951 1.39835 16.292 1.70431 15.4124 1.89553C14.724 1.16889 13.7296 0.709961 12.6588 0.709961C10.5936 0.709961 8.91087 2.3927 8.91087 4.45788C8.91087 4.76383 8.94912 5.03154 9.0256 5.29925C5.92783 5.14628 3.13601 3.65476 1.26205 1.36011C0.956102 1.93377 0.764882 2.54568 0.764882 3.23407C0.764882 4.53437 1.41503 5.68169 2.44762 6.37009C1.83572 6.33184 1.26205 6.17887 0.726638 5.91116V5.9494C0.726638 7.78512 2.02694 9.31488 3.74792 9.65908C3.44197 9.73557 3.09777 9.77381 2.75357 9.77381C2.52411 9.77381 2.2564 9.73557 2.02694 9.69732C2.52411 11.1888 3.9009 12.2979 5.54539 12.2979C4.24509 13.2923 2.63884 13.9042 0.879614 13.9042C0.573661 13.9042 0.267709 13.9042 0 13.8659C1.68274 14.9368 3.63319 15.5487 5.77486 15.5487C12.697 15.5487 16.4832 9.81205 16.4832 4.84032C16.4832 4.68735 16.4832 4.49613 16.4832 4.34315C17.2098 3.84598 17.86 3.19583 18.3572 2.43095Z" fill="white"/>
</g></symbol><symbol id="icon-twitter" viewBox="0 0 46 47"><g fill="none">
  <circle cx="23" cy="23.2588" r="22.5" fill="#18181B"/>
  <path d="M33.2009 18.302C32.5125 18.608 31.7859 18.7992 31.021 18.9139C31.7859 18.455 32.3978 17.7284 32.6655 16.8488C31.9389 17.2694 31.1357 17.5754 30.2561 17.7666C29.5677 17.04 28.5734 16.5811 27.5025 16.5811C25.4374 16.5811 23.7546 18.2638 23.7546 20.329C23.7546 20.6349 23.7929 20.9026 23.8694 21.1703C20.7716 21.0174 17.9798 19.5258 16.1058 17.2312C15.7999 17.8049 15.6086 18.4168 15.6086 19.1052C15.6086 20.4055 16.2588 21.5528 17.2914 22.2412C16.6795 22.2029 16.1058 22.05 15.5704 21.7823V21.8205C15.5704 23.6562 16.8707 25.186 18.5917 25.5302C18.2857 25.6067 17.9415 25.6449 17.5973 25.6449C17.3679 25.6449 17.1002 25.6067 16.8707 25.5684C17.3679 27.0599 18.7446 28.169 20.3891 28.169C19.0888 29.1634 17.4826 29.7753 15.7234 29.7753C15.4174 29.7753 15.1115 29.7753 14.8438 29.737C16.5265 30.8079 18.4769 31.4198 20.6186 31.4198C27.5408 31.4198 31.327 25.6831 31.327 20.7114C31.327 20.5584 31.327 20.3672 31.327 20.2142C32.0536 19.7171 32.7037 19.0669 33.2009 18.302Z" fill="white"/>
</g></symbol></svg>